<svg width="90" height="46" viewBox="0 0 90 46" fill="none" xmlns="http://www.w3.org/2000/svg">
<path d="M18.9128 19.52V21.96H22.3928C21.9528 23.04 20.6928 23.76 19.2128 23.76C17.0928 23.76 15.7128 22.24 15.7128 20.02C15.7128 17.78 17.1128 16.26 19.2128 16.26C20.6328 16.26 21.8928 17.02 22.3928 18.2H26.4528C25.8528 14.96 22.8528 12.66 19.1728 12.66C14.8728 12.66 11.7528 15.76 11.7528 20.02C11.7528 24.28 14.9328 27.36 19.2128 27.36C23.5928 27.36 26.5928 24.1 26.5928 19.52H18.9128ZM34.3289 16.16C33.0489 16.16 32.1289 16.52 31.3689 17.4L30.7889 16.2H28.2889V27H32.0089V21.52C32.0089 20.14 32.5689 19.56 33.8689 19.56H35.3289V16.16H34.3289ZM45.2706 16.2L44.8906 17.04C44.0106 16.3 42.8706 15.88 41.5906 15.88C38.2906 15.88 35.9306 18.26 35.9306 21.6C35.9306 24.96 38.2906 27.36 41.5906 27.36C42.8506 27.36 43.9706 26.96 44.8506 26.24L45.1706 27H48.0506V16.2H45.2706ZM42.0906 24.08C40.6906 24.08 39.6706 23.02 39.6706 21.6C39.6706 20.2 40.6906 19.16 42.0906 19.16C43.4906 19.16 44.5106 20.2 44.5106 21.6C44.5106 23.02 43.4906 24.08 42.0906 24.08ZM57.3783 16.2L55.3583 22.6L53.3183 16.2H49.2383L53.6383 27H56.9983L61.3383 16.2H57.3783ZM62.5667 14.86H66.2467V11.7H62.5667V14.86ZM62.5467 27H66.2667V16.2H62.5467V27ZM74.4614 23.76C73.6814 23.76 73.2014 23.28 73.2014 22.52V19.08H75.8214V16.2H73.1214V13.06H72.3414L67.5014 18.2V19.08H69.4814V23.14C69.4814 25.54 70.9414 27 73.3214 27H75.8814V23.76H74.4614ZM84.9248 16.2L82.7848 22.16L80.4848 16.2H76.4448L80.9048 26.12C80.4048 27.46 79.9848 27.84 78.5648 27.84H77.5248V31.02H78.8048C81.6048 31.02 82.9248 29.84 84.3848 26.52L88.9248 16.2H84.9248ZM24.4073 45.18C27.1073 45.18 29.0273 43.62 29.0273 41.24C29.0273 38.54 26.7073 38 24.4873 37.52C22.4273 37.06 20.4473 36.64 20.4473 34.52C20.4473 32.68 21.9673 31.48 24.2873 31.48C26.5073 31.48 28.0073 32.76 28.0073 34.74H28.6473C28.6473 32.38 26.9273 30.84 24.2873 30.84C21.5673 30.84 19.7873 32.3 19.7873 34.54C19.7873 37.14 22.1273 37.66 24.2873 38.12C26.3873 38.6 28.3473 39.02 28.3473 41.24C28.3473 43.2 26.7273 44.52 24.4073 44.52C21.8473 44.52 20.1473 43.1 20.1473 40.9H19.4873C19.4873 43.48 21.4473 45.18 24.4073 45.18ZM36.9074 34C35.0674 34 33.4474 35.08 32.7074 36.66V30.4H32.0674V45H32.7074V38.72C32.7074 36.5 34.5874 34.6 36.7874 34.6C39.1074 34.6 40.5074 36.16 40.5074 38.72V45H41.1474V38.62C41.1474 35.78 39.5274 34 36.9074 34ZM49.5399 45.22C52.7599 45.22 55.1599 42.82 55.1599 39.6C55.1599 36.4 52.7599 34 49.5399 34C46.3399 34 43.9199 36.38 43.9199 39.6C43.9199 42.82 46.3399 45.22 49.5399 45.22ZM49.5399 44.6C46.6999 44.6 44.5599 42.46 44.5599 39.6C44.5599 36.74 46.6799 34.62 49.5399 34.62C52.3999 34.62 54.4999 36.76 54.4999 39.6C54.4999 42.46 52.3999 44.6 49.5399 44.6ZM62.5816 34.18C60.7616 34.18 59.4216 35.14 58.7416 36.66L58.6416 34.2H58.1416V45H58.7816V38.92C58.7816 36.54 60.2816 34.8 62.5416 34.8H63.5216V34.18H62.5816ZM69.7793 44.4C68.0793 44.4 67.1193 43.4 67.1193 41.7V34.8H71.0393V34.22H67.1193V31.04H66.4793V34.22H63.9993V34.8H66.4793V41.72C66.4793 43.78 67.6993 45.02 69.7193 45.02H71.1393V44.4H69.7793ZM76.4955 45.22C78.9355 45.22 80.5755 43.98 80.5755 42.12C80.5755 39.74 78.4355 39.34 76.5355 39.04C74.7755 38.74 73.2155 38.48 73.2155 36.86C73.2155 35.5 74.4955 34.58 76.4155 34.58C78.3755 34.58 79.5555 35.5 79.6755 37.02H80.2755C80.1755 35.16 78.7155 34 76.4155 34C74.1355 34 72.5955 35.16 72.5955 36.88C72.5955 39 74.5155 39.32 76.3955 39.64C78.1755 39.94 79.9355 40.28 79.9355 42.14C79.9355 43.64 78.5755 44.62 76.5155 44.62C74.4755 44.62 73.1755 43.68 73.0155 42.06H72.3755C72.5555 44.02 74.0555 45.22 76.4955 45.22Z" fill="#5B4DD6"/>
<path d="M4.90164 22.271L5.7083 21.6586L1.79616 16.5069L0.0503001 16.7846L0.771784 15.1574L0.524457 14.8323C0.524457 14.8323 -1.16538 13.3321 1.52151 12.7476C1.62222 12.7237 1.728 12.7341 1.82213 12.7773L6.57736 2.03402L22 0L19.335 4.92568L18.8795 4.32835C18.8795 4.32835 14.0199 5.00925 10.525 7.66206C7.03011 10.3149 4.92214 14.8419 4.92214 14.8419L5.71377 15.884L2.55819 16.3863L6.25078 21.2481L6.99732 20.6814L8.30956 22.4089L6.796 22.4793L6.21389 24L4.90164 22.271ZM1.71327 14.8145C1.58846 14.9093 1.50133 15.0455 1.46745 15.1987C1.43356 15.352 1.45513 15.5124 1.5283 15.6512C1.60147 15.7899 1.72147 15.8981 1.86687 15.9564C2.01227 16.0147 2.17359 16.0192 2.32201 15.9692C2.47043 15.9192 2.59629 15.8179 2.6771 15.6834C2.75791 15.549 2.78841 15.3901 2.76315 15.2352C2.73788 15.0802 2.6585 14.9394 2.53919 14.8377C2.41987 14.736 2.26839 14.6802 2.11181 14.6802C1.96844 14.6804 1.82907 14.7277 1.71509 14.8149L1.71327 14.8145ZM0.839196 14.1212L1.08607 14.4464L1.46594 13.5883C1.10747 13.6089 0.525368 13.7084 0.839196 14.1212ZM5.88503 14.6176C5.88503 14.6176 7.7771 10.5597 10.9117 8.17856C14.0464 5.79747 18.404 5.18918 18.404 5.18918L21.0134 8.62518C21.0134 8.62518 16.6631 9.76321 13.7303 11.99C10.7974 14.2167 8.53184 18.1025 8.53184 18.1025L5.88503 14.6176Z" fill="#5B4DD6"/>
</svg>
