<svg width="360" height="800" viewBox="0 0 360 800" fill="none" xmlns="http://www.w3.org/2000/svg">
<g clip-path="url(#clip0_605_100)">
<rect width="360" height="800" fill="#EBE9FF"/>
<rect x="-551" y="937.759" width="1044.76" height="297.768" rx="148.884" transform="rotate(-45 -551 937.759)" fill="#5B4DD6"/>
<rect x="149" y="75.7593" width="1044.76" height="96.5383" rx="48.2691" transform="rotate(-45 149 75.7593)" fill="#5B4DD6"/>
<path d="M129.512 727.36H128.288L129.44 724.636H130.22L129.512 727.36ZM131.456 727.36H130.232L131.384 724.636H132.164L131.456 727.36ZM139.339 724.636L136.615 729.844V733H135.523V729.844L132.787 724.636H133.999L136.063 728.872L138.127 724.636H139.339ZM143.358 733.108C142.742 733.108 142.182 732.968 141.678 732.688C141.182 732.408 140.79 732.012 140.502 731.5C140.222 730.98 140.082 730.38 140.082 729.7C140.082 729.028 140.226 728.436 140.514 727.924C140.81 727.404 141.21 727.008 141.714 726.736C142.218 726.456 142.782 726.316 143.406 726.316C144.03 726.316 144.594 726.456 145.098 726.736C145.602 727.008 145.998 727.4 146.286 727.912C146.582 728.424 146.73 729.02 146.73 729.7C146.73 730.38 146.578 730.98 146.274 731.5C145.978 732.012 145.574 732.408 145.062 732.688C144.55 732.968 143.982 733.108 143.358 733.108ZM143.358 732.148C143.75 732.148 144.118 732.056 144.462 731.872C144.806 731.688 145.082 731.412 145.29 731.044C145.506 730.676 145.614 730.228 145.614 729.7C145.614 729.172 145.51 728.724 145.302 728.356C145.094 727.988 144.822 727.716 144.486 727.54C144.15 727.356 143.786 727.264 143.394 727.264C142.994 727.264 142.626 727.356 142.29 727.54C141.962 727.716 141.698 727.988 141.498 728.356C141.298 728.724 141.198 729.172 141.198 729.7C141.198 730.236 141.294 730.688 141.486 731.056C141.686 731.424 141.95 731.7 142.278 731.884C142.606 732.06 142.966 732.148 143.358 732.148ZM153.998 726.424V733H152.906V732.028C152.698 732.364 152.406 732.628 152.03 732.82C151.662 733.004 151.254 733.096 150.806 733.096C150.294 733.096 149.834 732.992 149.426 732.784C149.018 732.568 148.694 732.248 148.454 731.824C148.222 731.4 148.106 730.884 148.106 730.276V726.424H149.186V730.132C149.186 730.78 149.35 731.28 149.678 731.632C150.006 731.976 150.454 732.148 151.022 732.148C151.606 732.148 152.066 731.968 152.402 731.608C152.738 731.248 152.906 730.724 152.906 730.036V726.424H153.998ZM162.305 726.304C162.801 726.304 163.249 726.412 163.649 726.628C164.049 726.836 164.361 727.152 164.585 727.576C164.817 728 164.933 728.516 164.933 729.124V733H163.853V729.28C163.853 728.624 163.689 728.124 163.361 727.78C163.033 727.428 162.585 727.252 162.017 727.252C161.441 727.252 160.981 727.432 160.637 727.792C160.301 728.152 160.133 728.676 160.133 729.364V733H159.041V724.12H160.133V727.36C160.349 727.024 160.645 726.764 161.021 726.58C161.405 726.396 161.833 726.304 162.305 726.304ZM166.309 729.688C166.309 729.016 166.445 728.428 166.717 727.924C166.989 727.412 167.361 727.016 167.833 726.736C168.313 726.456 168.845 726.316 169.429 726.316C170.005 726.316 170.505 726.44 170.929 726.688C171.353 726.936 171.669 727.248 171.877 727.624V726.424H172.981V733H171.877V731.776C171.661 732.16 171.337 732.48 170.905 732.736C170.481 732.984 169.985 733.108 169.417 733.108C168.833 733.108 168.305 732.964 167.833 732.676C167.361 732.388 166.989 731.984 166.717 731.464C166.445 730.944 166.309 730.352 166.309 729.688ZM171.877 729.7C171.877 729.204 171.777 728.772 171.577 728.404C171.377 728.036 171.105 727.756 170.761 727.564C170.425 727.364 170.053 727.264 169.645 727.264C169.237 727.264 168.865 727.36 168.529 727.552C168.193 727.744 167.925 728.024 167.725 728.392C167.525 728.76 167.425 729.192 167.425 729.688C167.425 730.192 167.525 730.632 167.725 731.008C167.925 731.376 168.193 731.66 168.529 731.86C168.865 732.052 169.237 732.148 169.645 732.148C170.053 732.148 170.425 732.052 170.761 731.86C171.105 731.66 171.377 731.376 171.577 731.008C171.777 730.632 171.877 730.196 171.877 729.7ZM177.274 731.992L179.314 726.424H180.478L177.898 733H176.626L174.046 726.424H175.222L177.274 731.992ZM187.553 729.46C187.553 729.668 187.541 729.888 187.517 730.12H182.261C182.301 730.768 182.521 731.276 182.921 731.644C183.329 732.004 183.821 732.184 184.397 732.184C184.869 732.184 185.261 732.076 185.573 731.86C185.893 731.636 186.117 731.34 186.245 730.972H187.421C187.245 731.604 186.893 732.12 186.365 732.52C185.837 732.912 185.181 733.108 184.397 733.108C183.773 733.108 183.213 732.968 182.717 732.688C182.229 732.408 181.845 732.012 181.565 731.5C181.285 730.98 181.145 730.38 181.145 729.7C181.145 729.02 181.281 728.424 181.553 727.912C181.825 727.4 182.205 727.008 182.693 726.736C183.189 726.456 183.757 726.316 184.397 726.316C185.021 726.316 185.573 726.452 186.053 726.724C186.533 726.996 186.901 727.372 187.157 727.852C187.421 728.324 187.553 728.86 187.553 729.46ZM186.425 729.232C186.425 728.816 186.333 728.46 186.149 728.164C185.965 727.86 185.713 727.632 185.393 727.48C185.081 727.32 184.733 727.24 184.349 727.24C183.797 727.24 183.325 727.416 182.933 727.768C182.549 728.12 182.329 728.608 182.273 729.232H186.425ZM193.526 727.324V731.2C193.526 731.52 193.594 731.748 193.73 731.884C193.866 732.012 194.102 732.076 194.438 732.076H195.242V733H194.258C193.65 733 193.194 732.86 192.89 732.58C192.586 732.3 192.434 731.84 192.434 731.2V727.324H191.582V726.424H192.434V724.768H193.526V726.424H195.242V727.324H193.526ZM199.433 733.108C198.817 733.108 198.257 732.968 197.753 732.688C197.257 732.408 196.865 732.012 196.577 731.5C196.297 730.98 196.157 730.38 196.157 729.7C196.157 729.028 196.301 728.436 196.589 727.924C196.885 727.404 197.285 727.008 197.789 726.736C198.293 726.456 198.857 726.316 199.481 726.316C200.105 726.316 200.669 726.456 201.173 726.736C201.677 727.008 202.073 727.4 202.361 727.912C202.657 728.424 202.805 729.02 202.805 729.7C202.805 730.38 202.653 730.98 202.349 731.5C202.053 732.012 201.649 732.408 201.137 732.688C200.625 732.968 200.057 733.108 199.433 733.108ZM199.433 732.148C199.825 732.148 200.193 732.056 200.537 731.872C200.881 731.688 201.157 731.412 201.365 731.044C201.581 730.676 201.689 730.228 201.689 729.7C201.689 729.172 201.585 728.724 201.377 728.356C201.169 727.988 200.897 727.716 200.561 727.54C200.225 727.356 199.861 727.264 199.469 727.264C199.069 727.264 198.701 727.356 198.365 727.54C198.037 727.716 197.773 727.988 197.573 728.356C197.373 728.724 197.273 729.172 197.273 729.7C197.273 730.236 197.369 730.688 197.561 731.056C197.761 731.424 198.025 731.7 198.353 731.884C198.681 732.06 199.041 732.148 199.433 732.148ZM207.032 729.688C207.032 729.016 207.168 728.428 207.44 727.924C207.712 727.412 208.084 727.016 208.556 726.736C209.036 726.456 209.572 726.316 210.164 726.316C210.676 726.316 211.152 726.436 211.592 726.676C212.032 726.908 212.368 727.216 212.6 727.6V724.12H213.704V733H212.6V731.764C212.384 732.156 212.064 732.48 211.64 732.736C211.216 732.984 210.72 733.108 210.152 733.108C209.568 733.108 209.036 732.964 208.556 732.676C208.084 732.388 207.712 731.984 207.44 731.464C207.168 730.944 207.032 730.352 207.032 729.688ZM212.6 729.7C212.6 729.204 212.5 728.772 212.3 728.404C212.1 728.036 211.828 727.756 211.484 727.564C211.148 727.364 210.776 727.264 210.368 727.264C209.96 727.264 209.588 727.36 209.252 727.552C208.916 727.744 208.648 728.024 208.448 728.392C208.248 728.76 208.148 729.192 208.148 729.688C208.148 730.192 208.248 730.632 208.448 731.008C208.648 731.376 208.916 731.66 209.252 731.86C209.588 732.052 209.96 732.148 210.368 732.148C210.776 732.148 211.148 732.052 211.484 731.86C211.828 731.66 212.1 731.376 212.3 731.008C212.5 730.632 212.6 730.196 212.6 729.7ZM216.641 727.492C216.833 727.116 217.105 726.824 217.457 726.616C217.817 726.408 218.253 726.304 218.765 726.304V727.432H218.477C217.253 727.432 216.641 728.096 216.641 729.424V733H215.549V726.424H216.641V727.492ZM226.026 729.46C226.026 729.668 226.014 729.888 225.99 730.12H220.734C220.774 730.768 220.994 731.276 221.394 731.644C221.802 732.004 222.294 732.184 222.87 732.184C223.342 732.184 223.734 732.076 224.046 731.86C224.366 731.636 224.59 731.34 224.718 730.972H225.894C225.718 731.604 225.366 732.12 224.838 732.52C224.31 732.912 223.654 733.108 222.87 733.108C222.246 733.108 221.686 732.968 221.19 732.688C220.702 732.408 220.318 732.012 220.038 731.5C219.758 730.98 219.618 730.38 219.618 729.7C219.618 729.02 219.754 728.424 220.026 727.912C220.298 727.4 220.678 727.008 221.166 726.736C221.662 726.456 222.23 726.316 222.87 726.316C223.494 726.316 224.046 726.452 224.526 726.724C225.006 726.996 225.374 727.372 225.63 727.852C225.894 728.324 226.026 728.86 226.026 729.46ZM224.898 729.232C224.898 728.816 224.806 728.46 224.622 728.164C224.438 727.86 224.186 727.632 223.866 727.48C223.554 727.32 223.206 727.24 222.822 727.24C222.27 727.24 221.798 727.416 221.406 727.768C221.022 728.12 220.802 728.608 220.746 729.232H224.898ZM227.059 729.688C227.059 729.016 227.195 728.428 227.467 727.924C227.739 727.412 228.111 727.016 228.583 726.736C229.063 726.456 229.595 726.316 230.179 726.316C230.755 726.316 231.255 726.44 231.679 726.688C232.103 726.936 232.419 727.248 232.627 727.624V726.424H233.731V733H232.627V731.776C232.411 732.16 232.087 732.48 231.655 732.736C231.231 732.984 230.735 733.108 230.167 733.108C229.583 733.108 229.055 732.964 228.583 732.676C228.111 732.388 227.739 731.984 227.467 731.464C227.195 730.944 227.059 730.352 227.059 729.688ZM232.627 729.7C232.627 729.204 232.527 728.772 232.327 728.404C232.127 728.036 231.855 727.756 231.511 727.564C231.175 727.364 230.803 727.264 230.395 727.264C229.987 727.264 229.615 727.36 229.279 727.552C228.943 727.744 228.675 728.024 228.475 728.392C228.275 728.76 228.175 729.192 228.175 729.688C228.175 730.192 228.275 730.632 228.475 731.008C228.675 731.376 228.943 731.66 229.279 731.86C229.615 732.052 229.987 732.148 230.395 732.148C230.803 732.148 231.175 732.052 231.511 731.86C231.855 731.66 232.127 731.376 232.327 731.008C232.527 730.632 232.627 730.196 232.627 729.7ZM243.484 726.304C243.996 726.304 244.452 726.412 244.852 726.628C245.252 726.836 245.568 727.152 245.8 727.576C246.032 728 246.148 728.516 246.148 729.124V733H245.068V729.28C245.068 728.624 244.904 728.124 244.576 727.78C244.256 727.428 243.82 727.252 243.268 727.252C242.7 727.252 242.248 727.436 241.912 727.804C241.576 728.164 241.408 728.688 241.408 729.376V733H240.328V729.28C240.328 728.624 240.164 728.124 239.836 727.78C239.516 727.428 239.08 727.252 238.528 727.252C237.96 727.252 237.508 727.436 237.172 727.804C236.836 728.164 236.668 728.688 236.668 729.376V733H235.576V726.424H236.668V727.372C236.884 727.028 237.172 726.764 237.532 726.58C237.9 726.396 238.304 726.304 238.744 726.304C239.296 726.304 239.784 726.428 240.208 726.676C240.632 726.924 240.948 727.288 241.156 727.768C241.34 727.304 241.644 726.944 242.068 726.688C242.492 726.432 242.964 726.304 243.484 726.304ZM252.231 727.648C252.455 727.256 252.783 726.936 253.215 726.688C253.647 726.44 254.139 726.316 254.691 726.316C255.283 726.316 255.815 726.456 256.287 726.736C256.759 727.016 257.131 727.412 257.403 727.924C257.675 728.428 257.811 729.016 257.811 729.688C257.811 730.352 257.675 730.944 257.403 731.464C257.131 731.984 256.755 732.388 256.275 732.676C255.803 732.964 255.275 733.108 254.691 733.108C254.123 733.108 253.623 732.984 253.191 732.736C252.767 732.488 252.447 732.172 252.231 731.788V733H251.139V724.12H252.231V727.648ZM256.695 729.688C256.695 729.192 256.595 728.76 256.395 728.392C256.195 728.024 255.923 727.744 255.579 727.552C255.243 727.36 254.871 727.264 254.463 727.264C254.063 727.264 253.691 727.364 253.347 727.564C253.011 727.756 252.739 728.04 252.531 728.416C252.331 728.784 252.231 729.212 252.231 729.7C252.231 730.196 252.331 730.632 252.531 731.008C252.739 731.376 253.011 731.66 253.347 731.86C253.691 732.052 254.063 732.148 254.463 732.148C254.871 732.148 255.243 732.052 255.579 731.86C255.923 731.66 256.195 731.376 256.395 731.008C256.595 730.632 256.695 730.192 256.695 729.688ZM265.248 729.46C265.248 729.668 265.236 729.888 265.212 730.12H259.956C259.996 730.768 260.216 731.276 260.616 731.644C261.024 732.004 261.516 732.184 262.092 732.184C262.564 732.184 262.956 732.076 263.268 731.86C263.588 731.636 263.812 731.34 263.94 730.972H265.116C264.94 731.604 264.588 732.12 264.06 732.52C263.532 732.912 262.876 733.108 262.092 733.108C261.468 733.108 260.908 732.968 260.412 732.688C259.924 732.408 259.54 732.012 259.26 731.5C258.98 730.98 258.84 730.38 258.84 729.7C258.84 729.02 258.976 728.424 259.248 727.912C259.52 727.4 259.9 727.008 260.388 726.736C260.884 726.456 261.452 726.316 262.092 726.316C262.716 726.316 263.268 726.452 263.748 726.724C264.228 726.996 264.596 727.372 264.852 727.852C265.116 728.324 265.248 728.86 265.248 729.46ZM264.12 729.232C264.12 728.816 264.028 728.46 263.844 728.164C263.66 727.86 263.408 727.632 263.088 727.48C262.776 727.32 262.428 727.24 262.044 727.24C261.492 727.24 261.02 727.416 260.628 727.768C260.244 728.12 260.024 728.608 259.968 729.232H264.12ZM269.366 727.324H267.986V733H266.894V727.324H266.042V726.424H266.894V725.956C266.894 725.22 267.082 724.684 267.458 724.348C267.842 724.004 268.454 723.832 269.294 723.832V724.744C268.814 724.744 268.474 724.84 268.274 725.032C268.082 725.216 267.986 725.524 267.986 725.956V726.424H269.366V727.324ZM273.507 733.108C272.891 733.108 272.331 732.968 271.827 732.688C271.331 732.408 270.939 732.012 270.651 731.5C270.371 730.98 270.231 730.38 270.231 729.7C270.231 729.028 270.375 728.436 270.663 727.924C270.959 727.404 271.359 727.008 271.863 726.736C272.367 726.456 272.931 726.316 273.555 726.316C274.179 726.316 274.743 726.456 275.247 726.736C275.751 727.008 276.147 727.4 276.435 727.912C276.731 728.424 276.879 729.02 276.879 729.7C276.879 730.38 276.727 730.98 276.423 731.5C276.127 732.012 275.723 732.408 275.211 732.688C274.699 732.968 274.131 733.108 273.507 733.108ZM273.507 732.148C273.899 732.148 274.267 732.056 274.611 731.872C274.955 731.688 275.231 731.412 275.439 731.044C275.655 730.676 275.763 730.228 275.763 729.7C275.763 729.172 275.659 728.724 275.451 728.356C275.243 727.988 274.971 727.716 274.635 727.54C274.299 727.356 273.935 727.264 273.543 727.264C273.143 727.264 272.775 727.356 272.439 727.54C272.111 727.716 271.847 727.988 271.647 728.356C271.447 728.724 271.347 729.172 271.347 729.7C271.347 730.236 271.443 730.688 271.635 731.056C271.835 731.424 272.099 731.7 272.427 731.884C272.755 732.06 273.115 732.148 273.507 732.148ZM279.407 727.492C279.599 727.116 279.871 726.824 280.223 726.616C280.583 726.408 281.019 726.304 281.531 726.304V727.432H281.243C280.019 727.432 279.407 728.096 279.407 729.424V733H278.315V726.424H279.407V727.492ZM288.791 729.46C288.791 729.668 288.779 729.888 288.755 730.12H283.499C283.539 730.768 283.759 731.276 284.159 731.644C284.567 732.004 285.059 732.184 285.635 732.184C286.107 732.184 286.499 732.076 286.811 731.86C287.131 731.636 287.355 731.34 287.483 730.972H288.659C288.483 731.604 288.131 732.12 287.603 732.52C287.075 732.912 286.419 733.108 285.635 733.108C285.011 733.108 284.451 732.968 283.955 732.688C283.467 732.408 283.083 732.012 282.803 731.5C282.523 730.98 282.383 730.38 282.383 729.7C282.383 729.02 282.519 728.424 282.791 727.912C283.063 727.4 283.443 727.008 283.931 726.736C284.427 726.456 284.995 726.316 285.635 726.316C286.259 726.316 286.811 726.452 287.291 726.724C287.771 726.996 288.139 727.372 288.395 727.852C288.659 728.324 288.791 728.86 288.791 729.46ZM287.663 729.232C287.663 728.816 287.571 728.46 287.387 728.164C287.203 727.86 286.951 727.632 286.631 727.48C286.319 727.32 285.971 727.24 285.587 727.24C285.035 727.24 284.563 727.416 284.171 727.768C283.787 728.12 283.567 728.608 283.511 729.232H287.663ZM291.361 731.488L290.017 734.716H289.285L290.161 731.488H291.361ZM134.78 742.636L132.056 747.844V751H130.964V747.844L128.228 742.636H129.44L131.504 746.872L133.568 742.636H134.78ZM138.8 751.108C138.184 751.108 137.624 750.968 137.12 750.688C136.624 750.408 136.232 750.012 135.944 749.5C135.664 748.98 135.524 748.38 135.524 747.7C135.524 747.028 135.668 746.436 135.956 745.924C136.252 745.404 136.652 745.008 137.156 744.736C137.66 744.456 138.224 744.316 138.848 744.316C139.472 744.316 140.036 744.456 140.54 744.736C141.044 745.008 141.44 745.4 141.728 745.912C142.024 746.424 142.172 747.02 142.172 747.7C142.172 748.38 142.02 748.98 141.716 749.5C141.42 750.012 141.016 750.408 140.504 750.688C139.992 750.968 139.424 751.108 138.8 751.108ZM138.8 750.148C139.192 750.148 139.56 750.056 139.904 749.872C140.248 749.688 140.524 749.412 140.732 749.044C140.948 748.676 141.056 748.228 141.056 747.7C141.056 747.172 140.952 746.724 140.744 746.356C140.536 745.988 140.264 745.716 139.928 745.54C139.592 745.356 139.228 745.264 138.836 745.264C138.436 745.264 138.068 745.356 137.732 745.54C137.404 745.716 137.14 745.988 136.94 746.356C136.74 746.724 136.64 747.172 136.64 747.7C136.64 748.236 136.736 748.688 136.928 749.056C137.128 749.424 137.392 749.7 137.72 749.884C138.048 750.06 138.408 750.148 138.8 750.148ZM149.44 744.424V751H148.348V750.028C148.14 750.364 147.848 750.628 147.472 750.82C147.104 751.004 146.696 751.096 146.248 751.096C145.736 751.096 145.276 750.992 144.868 750.784C144.46 750.568 144.136 750.248 143.896 749.824C143.664 749.4 143.548 748.884 143.548 748.276V744.424H144.628V748.132C144.628 748.78 144.792 749.28 145.12 749.632C145.448 749.976 145.896 750.148 146.464 750.148C147.048 750.148 147.508 749.968 147.844 749.608C148.18 749.248 148.348 748.724 148.348 748.036V744.424H149.44ZM152.375 745.492C152.567 745.116 152.839 744.824 153.191 744.616C153.551 744.408 153.987 744.304 154.499 744.304V745.432H154.211C152.987 745.432 152.375 746.096 152.375 747.424V751H151.283V744.424H152.375V745.492ZM158.551 747.688C158.551 747.016 158.687 746.428 158.959 745.924C159.231 745.412 159.603 745.016 160.075 744.736C160.555 744.456 161.091 744.316 161.683 744.316C162.195 744.316 162.671 744.436 163.111 744.676C163.551 744.908 163.887 745.216 164.119 745.6V742.12H165.223V751H164.119V749.764C163.903 750.156 163.583 750.48 163.159 750.736C162.735 750.984 162.239 751.108 161.671 751.108C161.087 751.108 160.555 750.964 160.075 750.676C159.603 750.388 159.231 749.984 158.959 749.464C158.687 748.944 158.551 748.352 158.551 747.688ZM164.119 747.7C164.119 747.204 164.019 746.772 163.819 746.404C163.619 746.036 163.347 745.756 163.003 745.564C162.667 745.364 162.295 745.264 161.887 745.264C161.479 745.264 161.107 745.36 160.771 745.552C160.435 745.744 160.167 746.024 159.967 746.392C159.767 746.76 159.667 747.192 159.667 747.688C159.667 748.192 159.767 748.632 159.967 749.008C160.167 749.376 160.435 749.66 160.771 749.86C161.107 750.052 161.479 750.148 161.887 750.148C162.295 750.148 162.667 750.052 163.003 749.86C163.347 749.66 163.619 749.376 163.819 749.008C164.019 748.632 164.119 748.196 164.119 747.7ZM168.161 745.492C168.353 745.116 168.625 744.824 168.977 744.616C169.337 744.408 169.773 744.304 170.285 744.304V745.432H169.997C168.773 745.432 168.161 746.096 168.161 747.424V751H167.069V744.424H168.161V745.492ZM177.545 747.46C177.545 747.668 177.533 747.888 177.509 748.12H172.253C172.293 748.768 172.513 749.276 172.913 749.644C173.321 750.004 173.813 750.184 174.389 750.184C174.861 750.184 175.253 750.076 175.565 749.86C175.885 749.636 176.109 749.34 176.237 748.972H177.413C177.237 749.604 176.885 750.12 176.357 750.52C175.829 750.912 175.173 751.108 174.389 751.108C173.765 751.108 173.205 750.968 172.709 750.688C172.221 750.408 171.837 750.012 171.557 749.5C171.277 748.98 171.137 748.38 171.137 747.7C171.137 747.02 171.273 746.424 171.545 745.912C171.817 745.4 172.197 745.008 172.685 744.736C173.181 744.456 173.749 744.316 174.389 744.316C175.013 744.316 175.565 744.452 176.045 744.724C176.525 744.996 176.893 745.372 177.149 745.852C177.413 746.324 177.545 746.86 177.545 747.46ZM176.417 747.232C176.417 746.816 176.325 746.46 176.141 746.164C175.957 745.86 175.705 745.632 175.385 745.48C175.073 745.32 174.725 745.24 174.341 745.24C173.789 745.24 173.317 745.416 172.925 745.768C172.541 746.12 172.321 746.608 172.265 747.232H176.417ZM178.579 747.688C178.579 747.016 178.715 746.428 178.987 745.924C179.259 745.412 179.631 745.016 180.103 744.736C180.583 744.456 181.115 744.316 181.699 744.316C182.275 744.316 182.775 744.44 183.199 744.688C183.623 744.936 183.939 745.248 184.147 745.624V744.424H185.251V751H184.147V749.776C183.931 750.16 183.607 750.48 183.175 750.736C182.751 750.984 182.255 751.108 181.687 751.108C181.103 751.108 180.575 750.964 180.103 750.676C179.631 750.388 179.259 749.984 178.987 749.464C178.715 748.944 178.579 748.352 178.579 747.688ZM184.147 747.7C184.147 747.204 184.047 746.772 183.847 746.404C183.647 746.036 183.375 745.756 183.031 745.564C182.695 745.364 182.323 745.264 181.915 745.264C181.507 745.264 181.135 745.36 180.799 745.552C180.463 745.744 180.195 746.024 179.995 746.392C179.795 746.76 179.695 747.192 179.695 747.688C179.695 748.192 179.795 748.632 179.995 749.008C180.195 749.376 180.463 749.66 180.799 749.86C181.135 750.052 181.507 750.148 181.915 750.148C182.323 750.148 182.695 750.052 183.031 749.86C183.375 749.66 183.647 749.376 183.847 749.008C184.047 748.632 184.147 748.196 184.147 747.7ZM195.004 744.304C195.516 744.304 195.972 744.412 196.372 744.628C196.772 744.836 197.088 745.152 197.32 745.576C197.552 746 197.668 746.516 197.668 747.124V751H196.588V747.28C196.588 746.624 196.424 746.124 196.096 745.78C195.776 745.428 195.34 745.252 194.788 745.252C194.22 745.252 193.768 745.436 193.432 745.804C193.096 746.164 192.928 746.688 192.928 747.376V751H191.848V747.28C191.848 746.624 191.684 746.124 191.356 745.78C191.036 745.428 190.6 745.252 190.048 745.252C189.48 745.252 189.028 745.436 188.692 745.804C188.356 746.164 188.188 746.688 188.188 747.376V751H187.096V744.424H188.188V745.372C188.404 745.028 188.692 744.764 189.052 744.58C189.42 744.396 189.824 744.304 190.264 744.304C190.816 744.304 191.304 744.428 191.728 744.676C192.152 744.924 192.468 745.288 192.676 745.768C192.86 745.304 193.164 744.944 193.588 744.688C194.012 744.432 194.484 744.304 195.004 744.304ZM201.787 751.108C201.283 751.108 200.831 751.024 200.431 750.856C200.031 750.68 199.715 750.44 199.483 750.136C199.251 749.824 199.123 749.468 199.099 749.068H200.227C200.259 749.396 200.411 749.664 200.683 749.872C200.963 750.08 201.327 750.184 201.775 750.184C202.191 750.184 202.519 750.092 202.759 749.908C202.999 749.724 203.119 749.492 203.119 749.212C203.119 748.924 202.991 748.712 202.735 748.576C202.479 748.432 202.083 748.292 201.547 748.156C201.059 748.028 200.659 747.9 200.347 747.772C200.043 747.636 199.779 747.44 199.555 747.184C199.339 746.92 199.231 746.576 199.231 746.152C199.231 745.816 199.331 745.508 199.531 745.228C199.731 744.948 200.015 744.728 200.383 744.568C200.751 744.4 201.171 744.316 201.643 744.316C202.371 744.316 202.959 744.5 203.407 744.868C203.855 745.236 204.095 745.74 204.127 746.38H203.035C203.011 746.036 202.871 745.76 202.615 745.552C202.367 745.344 202.031 745.24 201.607 745.24C201.215 745.24 200.903 745.324 200.671 745.492C200.439 745.66 200.323 745.88 200.323 746.152C200.323 746.368 200.391 746.548 200.527 746.692C200.671 746.828 200.847 746.94 201.055 747.028C201.271 747.108 201.567 747.2 201.943 747.304C202.415 747.432 202.799 747.56 203.095 747.688C203.391 747.808 203.643 747.992 203.851 748.24C204.067 748.488 204.179 748.812 204.187 749.212C204.187 749.572 204.087 749.896 203.887 750.184C203.687 750.472 203.403 750.7 203.035 750.868C202.675 751.028 202.259 751.108 201.787 751.108ZM208.52 747.7C208.52 747.02 208.656 746.428 208.928 745.924C209.2 745.412 209.576 745.016 210.056 744.736C210.544 744.456 211.1 744.316 211.724 744.316C212.532 744.316 213.196 744.512 213.716 744.904C214.244 745.296 214.592 745.84 214.76 746.536H213.584C213.472 746.136 213.252 745.82 212.924 745.588C212.604 745.356 212.204 745.24 211.724 745.24C211.1 745.24 210.596 745.456 210.212 745.888C209.828 746.312 209.636 746.916 209.636 747.7C209.636 748.492 209.828 749.104 210.212 749.536C210.596 749.968 211.1 750.184 211.724 750.184C212.204 750.184 212.604 750.072 212.924 749.848C213.244 749.624 213.464 749.304 213.584 748.888H214.76C214.584 749.56 214.232 750.1 213.704 750.508C213.176 750.908 212.516 751.108 211.724 751.108C211.1 751.108 210.544 750.968 210.056 750.688C209.576 750.408 209.2 750.012 208.928 749.5C208.656 748.988 208.52 748.388 208.52 747.7ZM215.809 747.688C215.809 747.016 215.945 746.428 216.217 745.924C216.489 745.412 216.861 745.016 217.333 744.736C217.813 744.456 218.345 744.316 218.929 744.316C219.505 744.316 220.005 744.44 220.429 744.688C220.853 744.936 221.169 745.248 221.377 745.624V744.424H222.481V751H221.377V749.776C221.161 750.16 220.837 750.48 220.405 750.736C219.981 750.984 219.485 751.108 218.917 751.108C218.333 751.108 217.805 750.964 217.333 750.676C216.861 750.388 216.489 749.984 216.217 749.464C215.945 748.944 215.809 748.352 215.809 747.688ZM221.377 747.7C221.377 747.204 221.277 746.772 221.077 746.404C220.877 746.036 220.605 745.756 220.261 745.564C219.925 745.364 219.553 745.264 219.145 745.264C218.737 745.264 218.365 745.36 218.029 745.552C217.693 745.744 217.425 746.024 217.225 746.392C217.025 746.76 216.925 747.192 216.925 747.688C216.925 748.192 217.025 748.632 217.225 749.008C217.425 749.376 217.693 749.66 218.029 749.86C218.365 750.052 218.737 750.148 219.145 750.148C219.553 750.148 219.925 750.052 220.261 749.86C220.605 749.66 220.877 749.376 221.077 749.008C221.277 748.632 221.377 748.196 221.377 747.7ZM227.53 744.304C228.33 744.304 228.978 744.548 229.474 745.036C229.97 745.516 230.218 746.212 230.218 747.124V751H229.138V747.28C229.138 746.624 228.974 746.124 228.646 745.78C228.318 745.428 227.87 745.252 227.302 745.252C226.726 745.252 226.266 745.432 225.922 745.792C225.586 746.152 225.418 746.676 225.418 747.364V751H224.326V744.424H225.418V745.36C225.634 745.024 225.926 744.764 226.294 744.58C226.67 744.396 227.082 744.304 227.53 744.304ZM234.793 747.7C234.793 747.02 234.929 746.428 235.201 745.924C235.473 745.412 235.849 745.016 236.329 744.736C236.817 744.456 237.373 744.316 237.997 744.316C238.805 744.316 239.469 744.512 239.989 744.904C240.517 745.296 240.865 745.84 241.033 746.536H239.857C239.745 746.136 239.525 745.82 239.197 745.588C238.877 745.356 238.477 745.24 237.997 745.24C237.373 745.24 236.869 745.456 236.485 745.888C236.101 746.312 235.909 746.916 235.909 747.7C235.909 748.492 236.101 749.104 236.485 749.536C236.869 749.968 237.373 750.184 237.997 750.184C238.477 750.184 238.877 750.072 239.197 749.848C239.517 749.624 239.737 749.304 239.857 748.888H241.033C240.857 749.56 240.505 750.1 239.977 750.508C239.449 750.908 238.789 751.108 237.997 751.108C237.373 751.108 236.817 750.968 236.329 750.688C235.849 750.408 235.473 750.012 235.201 749.5C234.929 748.988 234.793 748.388 234.793 747.7ZM245.358 751.108C244.742 751.108 244.182 750.968 243.678 750.688C243.182 750.408 242.79 750.012 242.502 749.5C242.222 748.98 242.082 748.38 242.082 747.7C242.082 747.028 242.226 746.436 242.514 745.924C242.81 745.404 243.21 745.008 243.714 744.736C244.218 744.456 244.782 744.316 245.406 744.316C246.03 744.316 246.594 744.456 247.098 744.736C247.602 745.008 247.998 745.4 248.286 745.912C248.582 746.424 248.73 747.02 248.73 747.7C248.73 748.38 248.578 748.98 248.274 749.5C247.978 750.012 247.574 750.408 247.062 750.688C246.55 750.968 245.982 751.108 245.358 751.108ZM245.358 750.148C245.75 750.148 246.118 750.056 246.462 749.872C246.806 749.688 247.082 749.412 247.29 749.044C247.506 748.676 247.614 748.228 247.614 747.7C247.614 747.172 247.51 746.724 247.302 746.356C247.094 745.988 246.822 745.716 246.486 745.54C246.15 745.356 245.786 745.264 245.394 745.264C244.994 745.264 244.626 745.356 244.29 745.54C243.962 745.716 243.698 745.988 243.498 746.356C243.298 746.724 243.198 747.172 243.198 747.7C243.198 748.236 243.294 748.688 243.486 749.056C243.686 749.424 243.95 749.7 244.278 749.884C244.606 750.06 244.966 750.148 245.358 750.148ZM258.074 744.304C258.586 744.304 259.042 744.412 259.442 744.628C259.842 744.836 260.158 745.152 260.39 745.576C260.622 746 260.738 746.516 260.738 747.124V751H259.658V747.28C259.658 746.624 259.494 746.124 259.166 745.78C258.846 745.428 258.41 745.252 257.858 745.252C257.29 745.252 256.838 745.436 256.502 745.804C256.166 746.164 255.998 746.688 255.998 747.376V751H254.918V747.28C254.918 746.624 254.754 746.124 254.426 745.78C254.106 745.428 253.67 745.252 253.118 745.252C252.55 745.252 252.098 745.436 251.762 745.804C251.426 746.164 251.258 746.688 251.258 747.376V751H250.166V744.424H251.258V745.372C251.474 745.028 251.762 744.764 252.122 744.58C252.49 744.396 252.894 744.304 253.334 744.304C253.886 744.304 254.374 744.428 254.798 744.676C255.222 744.924 255.538 745.288 255.746 745.768C255.93 745.304 256.234 744.944 256.658 744.688C257.082 744.432 257.554 744.304 258.074 744.304ZM268.529 747.46C268.529 747.668 268.517 747.888 268.493 748.12H263.237C263.277 748.768 263.497 749.276 263.897 749.644C264.305 750.004 264.797 750.184 265.373 750.184C265.845 750.184 266.237 750.076 266.549 749.86C266.869 749.636 267.093 749.34 267.221 748.972H268.397C268.221 749.604 267.869 750.12 267.341 750.52C266.813 750.912 266.157 751.108 265.373 751.108C264.749 751.108 264.189 750.968 263.693 750.688C263.205 750.408 262.821 750.012 262.541 749.5C262.261 748.98 262.121 748.38 262.121 747.7C262.121 747.02 262.257 746.424 262.529 745.912C262.801 745.4 263.181 745.008 263.669 744.736C264.165 744.456 264.733 744.316 265.373 744.316C265.997 744.316 266.549 744.452 267.029 744.724C267.509 744.996 267.877 745.372 268.133 745.852C268.397 746.324 268.529 746.86 268.529 747.46ZM267.401 747.232C267.401 746.816 267.309 746.46 267.125 746.164C266.941 745.86 266.689 745.632 266.369 745.48C266.057 745.32 265.709 745.24 265.325 745.24C264.773 745.24 264.301 745.416 263.909 745.768C263.525 746.12 263.305 746.608 263.249 747.232H267.401ZM274.502 745.324V749.2C274.502 749.52 274.57 749.748 274.706 749.884C274.842 750.012 275.078 750.076 275.414 750.076H276.218V751H275.234C274.626 751 274.17 750.86 273.866 750.58C273.562 750.3 273.41 749.84 273.41 749.2V745.324H272.558V744.424H273.41V742.768H274.502V744.424H276.218V745.324H274.502ZM278.633 745.492C278.825 745.116 279.097 744.824 279.449 744.616C279.809 744.408 280.245 744.304 280.757 744.304V745.432H280.469C279.245 745.432 278.633 746.096 278.633 747.424V751H277.541V744.424H278.633V745.492ZM287.85 744.424V751H286.758V750.028C286.55 750.364 286.258 750.628 285.882 750.82C285.514 751.004 285.106 751.096 284.658 751.096C284.146 751.096 283.686 750.992 283.278 750.784C282.87 750.568 282.546 750.248 282.306 749.824C282.074 749.4 281.958 748.884 281.958 748.276V744.424H283.038V748.132C283.038 748.78 283.202 749.28 283.53 749.632C283.858 749.976 284.306 750.148 284.874 750.148C285.458 750.148 285.918 749.968 286.254 749.608C286.59 749.248 286.758 748.724 286.758 748.036V744.424H287.85ZM295.694 747.46C295.694 747.668 295.682 747.888 295.658 748.12H290.402C290.442 748.768 290.662 749.276 291.062 749.644C291.47 750.004 291.962 750.184 292.538 750.184C293.01 750.184 293.402 750.076 293.714 749.86C294.034 749.636 294.258 749.34 294.386 748.972H295.562C295.386 749.604 295.034 750.12 294.506 750.52C293.978 750.912 293.322 751.108 292.538 751.108C291.914 751.108 291.354 750.968 290.858 750.688C290.37 750.408 289.986 750.012 289.706 749.5C289.426 748.98 289.286 748.38 289.286 747.7C289.286 747.02 289.422 746.424 289.694 745.912C289.966 745.4 290.346 745.008 290.834 744.736C291.33 744.456 291.898 744.316 292.538 744.316C293.162 744.316 293.714 744.452 294.194 744.724C294.674 744.996 295.042 745.372 295.298 745.852C295.562 746.324 295.694 746.86 295.694 747.46ZM294.566 747.232C294.566 746.816 294.474 746.46 294.29 746.164C294.106 745.86 293.854 745.632 293.534 745.48C293.222 745.32 292.874 745.24 292.49 745.24C291.938 745.24 291.466 745.416 291.074 745.768C290.69 746.12 290.47 746.608 290.414 747.232H294.566ZM297.483 751.072C297.275 751.072 297.099 751 296.955 750.856C296.811 750.712 296.739 750.536 296.739 750.328C296.739 750.12 296.811 749.944 296.955 749.8C297.099 749.656 297.275 749.584 297.483 749.584C297.683 749.584 297.851 749.656 297.987 749.8C298.131 749.944 298.203 750.12 298.203 750.328C298.203 750.536 298.131 750.712 297.987 750.856C297.851 751 297.683 751.072 297.483 751.072ZM299.822 742.636H301.034L299.882 745.36H299.114L299.822 742.636ZM301.766 742.636H302.978L301.826 745.36H301.046L301.766 742.636Z" fill="#14152A"/>
<path d="M125.826 392.04V396.92H132.786C131.906 399.08 129.386 400.52 126.426 400.52C122.186 400.52 119.426 397.48 119.426 393.04C119.426 388.56 122.226 385.52 126.426 385.52C129.266 385.52 131.786 387.04 132.786 389.4H140.906C139.706 382.92 133.706 378.32 126.346 378.32C117.746 378.32 111.506 384.52 111.506 393.04C111.506 401.56 117.866 407.72 126.426 407.72C135.186 407.72 141.186 401.2 141.186 392.04H125.826ZM156.658 385.32C154.098 385.32 152.258 386.04 150.738 387.8L149.578 385.4H144.578V407H152.018V396.04C152.018 393.28 153.138 392.12 155.738 392.12H158.658V385.32H156.658ZM178.541 385.4L177.781 387.08C176.021 385.6 173.741 384.76 171.181 384.76C164.581 384.76 159.861 389.52 159.861 396.2C159.861 402.92 164.581 407.72 171.181 407.72C173.701 407.72 175.941 406.92 177.701 405.48L178.341 407H184.101V385.4H178.541ZM172.181 401.16C169.381 401.16 167.341 399.04 167.341 396.2C167.341 393.4 169.381 391.32 172.181 391.32C174.981 391.32 177.021 393.4 177.021 396.2C177.021 399.04 174.981 401.16 172.181 401.16ZM202.757 385.4L198.717 398.2L194.637 385.4H186.477L195.277 407H201.997L210.677 385.4H202.757ZM213.133 382.72H220.493V376.4H213.133V382.72ZM213.093 407H220.533V385.4H213.093V407ZM236.923 400.52C235.363 400.52 234.403 399.56 234.403 398.04V391.16H239.643V385.4H234.243V379.12H232.683L223.003 389.4V391.16H226.963V399.28C226.963 404.08 229.883 407 234.643 407H239.763V400.52H236.923ZM257.85 385.4L253.57 397.32L248.97 385.4H240.89L249.81 405.24C248.81 407.92 247.97 408.68 245.13 408.68H243.05V415.04H245.61C251.21 415.04 253.85 412.68 256.77 406.04L265.85 385.4H257.85ZM136.815 443.36C142.215 443.36 146.055 440.24 146.055 435.48C146.055 430.08 141.415 429 136.975 428.04C132.855 427.12 128.895 426.28 128.895 422.04C128.895 418.36 131.935 415.96 136.575 415.96C141.015 415.96 144.015 418.52 144.015 422.48H145.295C145.295 417.76 141.855 414.68 136.575 414.68C131.135 414.68 127.575 417.6 127.575 422.08C127.575 427.28 132.255 428.32 136.575 429.24C140.775 430.2 144.695 431.04 144.695 435.48C144.695 439.4 141.455 442.04 136.815 442.04C131.695 442.04 128.295 439.2 128.295 434.8H126.975C126.975 439.96 130.895 443.36 136.815 443.36ZM161.815 421C158.135 421 154.895 423.16 153.415 426.32V413.8H152.135V443H153.415V430.44C153.415 426 157.175 422.2 161.575 422.2C166.215 422.2 169.015 425.32 169.015 430.44V443H170.295V430.24C170.295 424.56 167.055 421 161.815 421ZM187.08 443.44C193.52 443.44 198.32 438.64 198.32 432.2C198.32 425.8 193.52 421 187.08 421C180.68 421 175.84 425.76 175.84 432.2C175.84 438.64 180.68 443.44 187.08 443.44ZM187.08 442.2C181.4 442.2 177.12 437.92 177.12 432.2C177.12 426.48 181.36 422.24 187.08 422.24C192.8 422.24 197 426.52 197 432.2C197 437.92 192.8 442.2 187.08 442.2ZM213.163 421.36C209.523 421.36 206.843 423.28 205.483 426.32L205.283 421.4H204.283V443H205.563V430.84C205.563 426.08 208.563 422.6 213.083 422.6H215.043V421.36H213.163ZM227.559 441.8C224.159 441.8 222.239 439.8 222.239 436.4V422.6H230.079V421.44H222.239V415.08H220.959V421.44H215.999V422.6H220.959V436.44C220.959 440.56 223.399 443.04 227.439 443.04H230.279V441.8H227.559ZM240.991 443.44C245.871 443.44 249.151 440.96 249.151 437.24C249.151 432.48 244.871 431.68 241.071 431.08C237.551 430.48 234.431 429.96 234.431 426.72C234.431 424 236.991 422.16 240.831 422.16C244.751 422.16 247.111 424 247.351 427.04H248.551C248.351 423.32 245.431 421 240.831 421C236.271 421 233.191 423.32 233.191 426.76C233.191 431 237.031 431.64 240.791 432.28C244.351 432.88 247.871 433.56 247.871 437.28C247.871 440.28 245.151 442.24 241.031 442.24C236.951 442.24 234.351 440.36 234.031 437.12H232.751C233.111 441.04 236.111 443.44 240.991 443.44Z" fill="white"/>
<path d="M99.2526 394.088L100.611 393.069L94.0241 384.489L91.0847 384.952L92.2994 382.242L91.883 381.701C91.883 381.701 89.0379 379.202 93.5617 378.229C93.7312 378.189 93.9093 378.206 94.0678 378.278L102.074 360.387L128.04 357L123.553 365.203L122.786 364.208C122.786 364.208 114.605 365.342 108.72 369.76C102.836 374.178 99.2871 381.717 99.2871 381.717L100.62 383.452L95.3071 384.289L101.524 392.385L102.781 391.441L104.99 394.318L102.442 394.435L101.462 396.968L99.2526 394.088ZM93.8845 381.671C93.6744 381.829 93.5277 382.056 93.4707 382.311C93.4136 382.566 93.4499 382.833 93.5731 383.064C93.6963 383.295 93.8983 383.476 94.1431 383.573C94.3879 383.67 94.6595 383.677 94.9094 383.594C95.1593 383.511 95.3712 383.342 95.5073 383.118C95.6434 382.894 95.6947 382.629 95.6522 382.371C95.6096 382.113 95.476 381.879 95.2751 381.71C95.0742 381.54 94.8192 381.447 94.5555 381.447C94.3141 381.448 94.0795 381.526 93.8876 381.672L93.8845 381.671ZM92.4129 380.516L92.8286 381.058L93.4681 379.629C92.8646 379.663 91.8845 379.829 92.4129 380.516ZM100.908 381.343C100.908 381.343 104.094 374.585 109.371 370.62C114.649 366.655 121.986 365.642 121.986 365.642L126.379 371.364C126.379 371.364 119.055 373.259 114.117 376.967C109.179 380.675 105.365 387.147 105.365 387.147L100.908 381.343Z" fill="white"/>
</g>
<defs>
<clipPath id="clip0_605_100">
<rect width="360" height="800" fill="white"/>
</clipPath>
</defs>
</svg>
